<svg width="131" height="131" viewBox="0 0 131 131" fill="none" xmlns="http://www.w3.org/2000/svg">
<path d="M59.5253 4.37793C61.1644 -1.45933 69.439 -1.4593 71.0781 4.37793L79.2206 33.3789C81.6718 42.1094 88.494 48.9327 97.2246 51.3838L126.226 59.5254C132.063 61.1644 132.063 69.4391 126.226 71.0781L97.2246 79.2197C88.494 81.6708 81.6718 88.4941 79.2206 97.2246L71.0781 126.226C69.439 132.063 61.1643 132.063 59.5253 126.226L51.3837 97.2246C48.9326 88.494 42.1095 81.6708 33.3788 79.2197L4.37787 71.0781C-1.45928 69.439 -1.4593 61.1645 4.37787 59.5254L33.3788 51.3838C42.1095 48.9327 48.9327 42.1096 51.3837 33.3789L59.5253 4.37793Z" fill="url(#paint0_linear_2102_7928)"/>
<path d="M94.3925 94.3926C97.1261 91.659 101.558 91.6591 104.292 94.3926L124.799 114.898C127.532 117.632 127.532 122.064 124.799 124.798C122.065 127.532 117.632 127.532 114.898 124.798L94.3925 104.292C91.6591 101.558 91.659 97.1262 94.3925 94.3926Z" fill="url(#paint1_linear_2102_7928)"/>
<path d="M28.2578 94.3926C30.9914 91.6589 35.4235 91.6589 38.1572 94.3926C40.8906 97.1263 40.8908 101.558 38.1572 104.292L17.6513 124.798C14.9177 127.531 10.4856 127.531 7.7519 124.798C5.01823 122.064 5.01823 117.632 7.7519 114.898L28.2578 94.3926Z" fill="url(#paint2_linear_2102_7928)"/>
<path d="M7.7519 7.75195C10.4855 5.01834 14.9176 5.01845 17.6513 7.75195L38.1581 28.2578C40.8916 30.9914 40.8914 35.4236 38.1581 38.1572C35.4245 40.8909 30.9914 40.8909 28.2578 38.1572L7.7519 17.6514C5.01842 14.9177 5.01837 10.4856 7.7519 7.75195Z" fill="url(#paint3_linear_2102_7928)"/>
<path d="M114.898 7.75195C117.632 5.01828 122.064 5.01828 124.798 7.75195C127.531 10.4856 127.531 14.9178 124.798 17.6514L104.292 38.1572C101.558 40.8908 97.1262 40.8907 94.3925 38.1572C91.6589 35.4236 91.6589 30.9915 94.3925 28.2578L114.898 7.75195Z" fill="url(#paint4_linear_2102_7928)"/>
<path d="M60.4883 4.64844C61.8541 -0.215912 68.7493 -0.21593 70.1152 4.64844L78.2578 33.6494C80.8032 42.7156 87.8878 49.8013 96.9541 52.3467L125.955 60.4883C130.82 61.8541 130.82 68.7494 125.955 70.1152L96.9541 78.2568C87.8878 80.8022 80.8032 87.888 78.2578 96.9541L70.1152 125.955C68.7494 130.82 61.8541 130.82 60.4883 125.955L52.3467 96.9541C49.8013 87.8878 42.7157 80.8022 33.6494 78.2568L4.64844 70.1152C-0.215863 68.7493 -0.215849 61.8542 4.64844 60.4883L33.6494 52.3467C42.7157 49.8013 49.8013 42.7157 52.3467 33.6494L60.4883 4.64844ZM28.9648 95.0996C31.308 92.7565 35.1071 92.7565 37.4502 95.0996C39.7931 97.4428 39.7932 101.242 37.4502 103.585L16.9443 124.091C14.6745 126.361 11.038 126.432 8.68262 124.304L8.45898 124.091C6.11584 121.748 6.11584 117.949 8.45898 115.605L28.9648 95.0996ZM95.0996 95.0996C97.4427 92.7566 101.242 92.7566 103.585 95.0996L124.092 115.605C126.435 117.948 126.435 121.748 124.092 124.091C121.749 126.434 117.949 126.434 115.605 124.091L95.0996 103.585C92.7566 101.242 92.7566 97.4427 95.0996 95.0996ZM8.45898 8.45898C10.8021 6.11595 14.6012 6.11596 16.9443 8.45898L37.4512 28.9648C39.794 31.3078 39.7939 35.107 37.4512 37.4502C35.108 39.7933 31.308 39.7933 28.9648 37.4502L8.45898 16.9443C6.11599 14.6012 6.11598 10.8021 8.45898 8.45898ZM115.605 8.45898C117.949 6.11587 121.748 6.11585 124.091 8.45898C126.434 10.8022 126.434 14.6013 124.091 16.9443L103.585 37.4502C101.315 39.72 97.6786 39.791 95.3232 37.6631L95.0996 37.4502C92.7565 35.107 92.7565 31.308 95.0996 28.9648L115.605 8.45898Z" stroke="white" stroke-opacity="0.5" stroke-width="2"/>
<defs>
<linearGradient id="paint0_linear_2102_7928" x1="65.3018" y1="0" x2="65.3018" y2="130.604" gradientUnits="userSpaceOnUse">
<stop stop-color="#D6974B"/>
<stop offset="1" stop-color="#FFD89D"/>
</linearGradient>
<linearGradient id="paint1_linear_2102_7928" x1="65.3018" y1="0" x2="65.3018" y2="130.604" gradientUnits="userSpaceOnUse">
<stop stop-color="#D6974B"/>
<stop offset="1" stop-color="#FFD89D"/>
</linearGradient>
<linearGradient id="paint2_linear_2102_7928" x1="65.3018" y1="0" x2="65.3018" y2="130.604" gradientUnits="userSpaceOnUse">
<stop stop-color="#D6974B"/>
<stop offset="1" stop-color="#FFD89D"/>
</linearGradient>
<linearGradient id="paint3_linear_2102_7928" x1="65.3018" y1="0" x2="65.3018" y2="130.604" gradientUnits="userSpaceOnUse">
<stop stop-color="#D6974B"/>
<stop offset="1" stop-color="#FFD89D"/>
</linearGradient>
<linearGradient id="paint4_linear_2102_7928" x1="65.3018" y1="0" x2="65.3018" y2="130.604" gradientUnits="userSpaceOnUse">
<stop stop-color="#D6974B"/>
<stop offset="1" stop-color="#FFD89D"/>
</linearGradient>
</defs>
</svg>
